<svg width="435" height="311" viewBox="0 0 435 311" fill="none" xmlns="http://www.w3.org/2000/svg">
<g clip-path="url(#clip0_503_10)">
<rect width="435" height="311" fill="white"/>
<g clip-path="url(#clip1_503_10)">
<path d="M338.018 214.255L294.941 155.73C290.262 149.37 283.332 145.56 275.953 144.72C274.273 144.526 272.773 143.551 271.933 142.081C271.078 140.611 270.988 138.826 271.663 137.266C274.618 130.457 274.798 122.552 271.618 115.323L242.476 48.7586C238.156 38.8745 228.392 32.5 217.608 32.5C206.824 32.5 197.06 38.8895 192.74 48.7586L163.598 115.323C160.433 122.552 160.598 130.457 163.552 137.266C164.227 138.826 164.122 140.611 163.283 142.081C162.428 143.551 160.943 144.526 159.263 144.72C151.883 145.56 144.954 149.37 140.275 155.73L97.1981 214.255C90.8086 222.939 90.1637 234.578 95.5482 243.922C100.948 253.251 111.357 258.516 122.066 257.331L194.285 249.292C202.129 248.422 208.894 244.327 213.303 238.358C214.308 236.993 215.913 236.183 217.608 236.183C219.303 236.183 220.893 236.993 221.913 238.358C226.322 244.327 233.087 248.422 240.931 249.292L313.15 257.331C323.859 258.531 334.268 253.266 339.668 243.922C345.052 234.578 344.407 222.939 338.018 214.255ZM182.436 123.677L211.623 57.0379C212.673 54.6531 215.028 53.1082 217.623 53.1082C220.218 53.1082 222.572 54.6531 223.622 57.0379L252.81 123.677C253.725 125.777 253.53 128.207 252.27 130.127C251.01 132.047 248.88 133.201 246.57 133.201H188.66C186.366 133.201 184.221 132.047 182.961 130.127C181.701 128.207 181.506 125.777 182.421 123.677H182.436ZM197.42 225.129C196.385 227.184 194.375 228.563 192.095 228.818L119.801 236.858C117.221 237.143 114.702 235.883 113.397 233.633C112.092 231.383 112.257 228.578 113.802 226.479L156.923 167.894C158.288 166.049 160.478 164.999 162.773 165.134C165.067 165.254 167.137 166.529 168.292 168.523L168.337 168.598L197.21 218.604L197.255 218.679C198.41 220.674 198.47 223.104 197.435 225.144L197.42 225.129ZM223.547 202.511C222.318 204.625 220.068 205.945 217.608 205.945C215.163 205.945 212.898 204.64 211.668 202.526L189.485 164.114C188.255 161.999 188.255 159.374 189.485 157.259C190.715 155.145 192.965 153.825 195.425 153.825H239.776C242.221 153.825 244.486 155.115 245.716 157.244C246.945 159.374 246.945 161.984 245.716 164.099L223.547 202.511ZM321.834 233.633C320.529 235.883 318.024 237.158 315.43 236.873L243.136 228.833C240.856 228.578 238.846 227.199 237.811 225.144C236.776 223.089 236.836 220.659 237.991 218.679L238.036 218.604L266.909 168.598L266.954 168.523C268.109 166.529 270.178 165.254 272.473 165.134C274.768 165.014 276.958 166.049 278.323 167.894L321.444 226.479C322.989 228.578 323.139 231.383 321.849 233.633H321.834Z" fill="#E81899"/>
</g>
</g>
<defs>
<clipPath id="clip0_503_10">
<rect width="435" height="311" fill="white"/>
</clipPath>
<clipPath id="clip1_503_10">
<rect width="253" height="226" fill="white" transform="translate(91 32)"/>
</clipPath>
</defs>
</svg>
